<svg xmlns="http://www.w3.org/2000/svg" width="57.508" height="57.508" viewBox="0 0 57.508 57.508">
    <defs>
        <filter id="k43mv17bla" width="57.508" height="57.508" x="0" y="0" filterUnits="userSpaceOnUse">
            <feOffset dy="3"/>
            <feGaussianBlur result="blur" stdDeviation="3"/>
            <feFlood flood-opacity=".161"/>
            <feComposite in2="blur" operator="in"/>
            <feComposite in="SourceGraphic"/>
        </filter>
    </defs>
    <g>
        <g filter="url(#k43mv17bla)" transform="translate(-26.047 -4459.047) translate(26.05 4459.05)">
            <path fill="#25d366" d="M19.754 0A19.754 19.754 0 1 1 0 19.754 19.754 19.754 0 0 1 19.754 0z" transform="translate(9 6)"/>
        </g>
        <g>
            <path fill="#fff" fill-rule="evenodd" d="M388.976 34.539a10.03 10.03 0 0 0-15.782 12.1l-1.423 5.2 5.316-1.394a10.018 10.018 0 0 0 4.792 1.22 10.032 10.032 0 0 0 7.093-17.121m-7.093 15.428a8.321 8.321 0 0 1-4.242-1.162l-.3-.181-3.154.827.842-3.076-.2-.315a8.334 8.334 0 1 1 7.06 3.906m4.572-6.242c-.251-.125-1.482-.731-1.712-.815s-.4-.125-.564.125-.647.815-.793.982-.292.188-.543.063a6.841 6.841 0 0 1-2.015-1.244 7.551 7.551 0 0 1-1.394-1.736c-.146-.251-.016-.386.11-.511s.251-.293.376-.439a1.711 1.711 0 0 0 .251-.418.461.461 0 0 0-.021-.439c-.063-.125-.564-1.359-.772-1.86s-.41-.422-.564-.43-.313-.009-.48-.009a.92.92 0 0 0-.668.313 2.81 2.81 0 0 0-.877 2.09 4.873 4.873 0 0 0 1.023 2.592 11.168 11.168 0 0 0 4.28 3.783 14.407 14.407 0 0 0 1.428.528 3.433 3.433 0 0 0 1.578.1 2.58 2.58 0 0 0 1.691-1.191 2.1 2.1 0 0 0 .146-1.191c-.063-.1-.23-.167-.48-.293" transform="translate(-26.047 -4459.047) translate(45.001 4474.232) translate(-371.771 -31.598)"/>
        </g>
    </g>
</svg>
